<?xml version="1.0" encoding="utf-8" standalone="no"?>
<!DOCTYPE svg PUBLIC "-//W3C//DTD SVG 1.1//EN"
  "http://www.w3.org/Graphics/SVG/1.1/DTD/svg11.dtd">
<svg xmlns:xlink="http://www.w3.org/1999/xlink" width="720pt" height="504pt" viewBox="0 0 720 504" xmlns="http://www.w3.org/2000/svg" version="1.1">
 <metadata>
  <rdf:RDF xmlns:dc="http://purl.org/dc/elements/1.1/" xmlns:cc="http://creativecommons.org/ns#" xmlns:rdf="http://www.w3.org/1999/02/22-rdf-syntax-ns#">
   <cc:Work>
    <dc:type rdf:resource="http://purl.org/dc/dcmitype/StillImage"/>
    <dc:date>2025-05-08T15:33:29.433835</dc:date>
    <dc:format>image/svg+xml</dc:format>
    <dc:creator>
     <cc:Agent>
      <dc:title>Matplotlib v3.6.3, https://matplotlib.org/</dc:title>
     </cc:Agent>
    </dc:creator>
   </cc:Work>
  </rdf:RDF>
 </metadata>
 <defs>
  <style type="text/css">*{stroke-linejoin: round; stroke-linecap: butt}</style>
 </defs>
 <g id="figure_1">
  <g id="patch_1">
   <path d="M 0 504 
L 720 504 
L 720 0 
L 0 0 
z
" style="fill: #ffffff"/>
  </g>
  <g id="axes_1">
   <g id="patch_2">
    <path d="M 563.987857 228.886828 
Q 577.849183 235.254228 590.694542 241.154929 
" clip-path="url(#p6382a17e52)" style="fill: none; stroke: #008000; stroke-linecap: round"/>
    <path d="M 587.894561 237.667794 
L 590.694542 241.154929 
L 586.224845 241.302632 
L 587.894561 237.667794 
z
" clip-path="url(#p6382a17e52)" style="fill: #008000; stroke: #008000; stroke-linecap: round"/>
   </g>
   <g id="patch_3">
    <path d="M 395.518401 210.312732 
Q 493.281117 227.044001 589.941821 243.58667 
" clip-path="url(#p6382a17e52)" style="fill: none; stroke: #ff0000; stroke-linecap: round"/>
    <path d="M 586.336522 240.940575 
L 589.941821 243.58667 
L 585.661766 244.883252 
L 586.336522 240.940575 
z
" clip-path="url(#p6382a17e52)" style="fill: #ff0000; stroke: #ff0000; stroke-linecap: round"/>
   </g>
   <g id="patch_4">
    <path d="M 392.691703 202.345134 
Q 437.290837 151.504534 481.152677 101.504409 
" clip-path="url(#p6382a17e52)" style="fill: none; stroke: #ff0000; stroke-linecap: round"/>
    <path d="M 477.011368 103.192472 
L 481.152677 101.504409 
L 480.018342 105.830294 
L 477.011368 103.192472 
z
" clip-path="url(#p6382a17e52)" style="fill: #ff0000; stroke: #ff0000; stroke-linecap: round"/>
   </g>
   <g id="patch_5">
    <path d="M 378.49161 210.534817 
Q 262.704005 233.478951 148.01311 256.205764 
" clip-path="url(#p6382a17e52)" style="fill: none; stroke: #ff0000; stroke-linecap: round"/>
    <path d="M 152.325572 257.390107 
L 148.01311 256.205764 
L 151.548062 253.4664 
L 152.325572 257.390107 
z
" clip-path="url(#p6382a17e52)" style="fill: #ff0000; stroke: #ff0000; stroke-linecap: round"/>
   </g>
   <g id="patch_6">
    <path d="M 539.899911 238.180846 
Q 565.439249 241.200046 589.868285 244.087988 
" clip-path="url(#p6382a17e52)" style="fill: none; stroke: #ff0000; stroke-linecap: round"/>
    <path d="M 586.130746 241.632218 
L 589.868285 244.087988 
L 585.661145 245.604557 
L 586.130746 241.632218 
z
" clip-path="url(#p6382a17e52)" style="fill: #ff0000; stroke: #ff0000; stroke-linecap: round"/>
   </g>
   <g id="patch_7">
    <path d="M 144.353853 264.419015 
Q 148.645484 268.985719 152.171463 272.737698 
" clip-path="url(#p6382a17e52)" style="fill: none; stroke: #ff0000; stroke-linecap: round"/>
    <path d="M 150.889612 268.453207 
L 152.171463 272.737698 
L 147.97476 271.192484 
L 150.889612 268.453207 
z
" clip-path="url(#p6382a17e52)" style="fill: #ff0000; stroke: #ff0000; stroke-linecap: round"/>
   </g>
   <g id="patch_8">
    <path d="M 222.386456 290.218095 
Q 184.448732 275.709137 147.555279 261.599552 
" clip-path="url(#p6382a17e52)" style="fill: none; stroke: #008000; stroke-linecap: round"/>
    <path d="M 150.576957 264.896439 
L 147.555279 261.599552 
L 152.005795 261.160342 
L 150.576957 264.896439 
z
" clip-path="url(#p6382a17e52)" style="fill: #008000; stroke: #008000; stroke-linecap: round"/>
   </g>
   <g id="patch_9">
    <path d="M 230.028685 301.960528 
Q 228.309964 335.326809 226.648758 367.576537 
" clip-path="url(#p6382a17e52)" style="fill: none; stroke: #008000; stroke-linecap: round"/>
    <path d="M 228.85188 363.684718 
L 226.648758 367.576537 
L 224.857176 363.478948 
L 228.85188 363.684718 
z
" clip-path="url(#p6382a17e52)" style="fill: #008000; stroke: #008000; stroke-linecap: round"/>
   </g>
   <g id="patch_10">
    <path d="M 356.783277 382.321932 
Q 350.430702 390.763797 344.750381 398.312312 
" clip-path="url(#p6382a17e52)" style="fill: none; stroke: #008000; stroke-linecap: round"/>
    <path d="M 348.753583 396.318729 
L 344.750381 398.312312 
L 345.557436 393.913601 
L 348.753583 396.318729 
z
" clip-path="url(#p6382a17e52)" style="fill: #008000; stroke: #008000; stroke-linecap: round"/>
   </g>
   <g id="patch_11">
    <path d="M 365.579657 412.786661 
Q 356.426721 410.503149 348.358568 408.490273 
" clip-path="url(#p6382a17e52)" style="fill: none; stroke: #008000; stroke-linecap: round"/>
    <path d="M 351.75548 411.399052 
L 348.358568 408.490273 
L 352.723738 407.518011 
L 351.75548 411.399052 
z
" clip-path="url(#p6382a17e52)" style="fill: #008000; stroke: #008000; stroke-linecap: round"/>
   </g>
   <g id="text_1">
    <g id="patch_12">
     <path d="M 560.341533 234.113107 
L 590.118811 247.791728 
Q 592.299714 248.793557 593.301544 246.612654 
L 596.533486 239.57697 
Q 597.535316 237.396067 595.354413 236.394238 
L 565.577134 222.715616 
Q 563.396231 221.713787 562.394402 223.89469 
L 559.162459 230.930374 
Q 558.16063 233.111277 560.341533 234.113107 
z
" clip-path="url(#p6382a17e52)" style="fill: #ffffff; stroke: #ffffff; stroke-linejoin: miter"/>
    </g>
    <g clip-path="url(#p6382a17e52)">
     <!-- Synergy -->
     <g transform="translate(562.03786 230.420338) rotate(-335.327634) scale(0.08 -0.08)">
      <defs>
       <path id="DejaVuSans-53" d="M 3425 4513 
L 3425 3897 
Q 3066 4069 2747 4153 
Q 2428 4238 2131 4238 
Q 1616 4238 1336 4038 
Q 1056 3838 1056 3469 
Q 1056 3159 1242 3001 
Q 1428 2844 1947 2747 
L 2328 2669 
Q 3034 2534 3370 2195 
Q 3706 1856 3706 1288 
Q 3706 609 3251 259 
Q 2797 -91 1919 -91 
Q 1588 -91 1214 -16 
Q 841 59 441 206 
L 441 856 
Q 825 641 1194 531 
Q 1563 422 1919 422 
Q 2459 422 2753 634 
Q 3047 847 3047 1241 
Q 3047 1584 2836 1778 
Q 2625 1972 2144 2069 
L 1759 2144 
Q 1053 2284 737 2584 
Q 422 2884 422 3419 
Q 422 4038 858 4394 
Q 1294 4750 2059 4750 
Q 2388 4750 2728 4690 
Q 3069 4631 3425 4513 
z
" transform="scale(0.015625)"/>
       <path id="DejaVuSans-79" d="M 2059 -325 
Q 1816 -950 1584 -1140 
Q 1353 -1331 966 -1331 
L 506 -1331 
L 506 -850 
L 844 -850 
Q 1081 -850 1212 -737 
Q 1344 -625 1503 -206 
L 1606 56 
L 191 3500 
L 800 3500 
L 1894 763 
L 2988 3500 
L 3597 3500 
L 2059 -325 
z
" transform="scale(0.015625)"/>
       <path id="DejaVuSans-6e" d="M 3513 2113 
L 3513 0 
L 2938 0 
L 2938 2094 
Q 2938 2591 2744 2837 
Q 2550 3084 2163 3084 
Q 1697 3084 1428 2787 
Q 1159 2491 1159 1978 
L 1159 0 
L 581 0 
L 581 3500 
L 1159 3500 
L 1159 2956 
Q 1366 3272 1645 3428 
Q 1925 3584 2291 3584 
Q 2894 3584 3203 3211 
Q 3513 2838 3513 2113 
z
" transform="scale(0.015625)"/>
       <path id="DejaVuSans-65" d="M 3597 1894 
L 3597 1613 
L 953 1613 
Q 991 1019 1311 708 
Q 1631 397 2203 397 
Q 2534 397 2845 478 
Q 3156 559 3463 722 
L 3463 178 
Q 3153 47 2828 -22 
Q 2503 -91 2169 -91 
Q 1331 -91 842 396 
Q 353 884 353 1716 
Q 353 2575 817 3079 
Q 1281 3584 2069 3584 
Q 2775 3584 3186 3129 
Q 3597 2675 3597 1894 
z
M 3022 2063 
Q 3016 2534 2758 2815 
Q 2500 3097 2075 3097 
Q 1594 3097 1305 2825 
Q 1016 2553 972 2059 
L 3022 2063 
z
" transform="scale(0.015625)"/>
       <path id="DejaVuSans-72" d="M 2631 2963 
Q 2534 3019 2420 3045 
Q 2306 3072 2169 3072 
Q 1681 3072 1420 2755 
Q 1159 2438 1159 1844 
L 1159 0 
L 581 0 
L 581 3500 
L 1159 3500 
L 1159 2956 
Q 1341 3275 1631 3429 
Q 1922 3584 2338 3584 
Q 2397 3584 2469 3576 
Q 2541 3569 2628 3553 
L 2631 2963 
z
" transform="scale(0.015625)"/>
       <path id="DejaVuSans-67" d="M 2906 1791 
Q 2906 2416 2648 2759 
Q 2391 3103 1925 3103 
Q 1463 3103 1205 2759 
Q 947 2416 947 1791 
Q 947 1169 1205 825 
Q 1463 481 1925 481 
Q 2391 481 2648 825 
Q 2906 1169 2906 1791 
z
M 3481 434 
Q 3481 -459 3084 -895 
Q 2688 -1331 1869 -1331 
Q 1566 -1331 1297 -1286 
Q 1028 -1241 775 -1147 
L 775 -588 
Q 1028 -725 1275 -790 
Q 1522 -856 1778 -856 
Q 2344 -856 2625 -561 
Q 2906 -266 2906 331 
L 2906 616 
Q 2728 306 2450 153 
Q 2172 0 1784 0 
Q 1141 0 747 490 
Q 353 981 353 1791 
Q 353 2603 747 3093 
Q 1141 3584 1784 3584 
Q 2172 3584 2450 3431 
Q 2728 3278 2906 2969 
L 2906 3500 
L 3481 3500 
L 3481 434 
z
" transform="scale(0.015625)"/>
      </defs>
      <use xlink:href="#DejaVuSans-53"/>
      <use xlink:href="#DejaVuSans-79" x="63.476562"/>
      <use xlink:href="#DejaVuSans-6e" x="122.65625"/>
      <use xlink:href="#DejaVuSans-65" x="186.035156"/>
      <use xlink:href="#DejaVuSans-72" x="247.558594"/>
      <use xlink:href="#DejaVuSans-67" x="286.921875"/>
      <use xlink:href="#DejaVuSans-79" x="350.398438"/>
     </g>
    </g>
   </g>
   <g id="text_2">
    <g id="patch_13">
     <path d="M 473.817019 230.075311 
L 510.629304 236.375425 
Q 512.99491 236.780279 513.399764 234.414673 
L 514.705839 226.783128 
Q 515.110692 224.417522 512.745086 224.012668 
L 475.932801 217.712554 
Q 473.567195 217.3077 473.162341 219.673307 
L 471.856266 227.304851 
Q 471.451413 229.670458 473.817019 230.075311 
z
" clip-path="url(#p6382a17e52)" style="fill: #ffffff; stroke: #ffffff; stroke-linejoin: miter"/>
    </g>
    <g clip-path="url(#p6382a17e52)">
     <!-- Inhibition -->
     <g transform="translate(474.502529 226.069798) rotate(-350.288394) scale(0.08 -0.08)">
      <defs>
       <path id="DejaVuSans-49" d="M 628 4666 
L 1259 4666 
L 1259 0 
L 628 0 
L 628 4666 
z
" transform="scale(0.015625)"/>
       <path id="DejaVuSans-68" d="M 3513 2113 
L 3513 0 
L 2938 0 
L 2938 2094 
Q 2938 2591 2744 2837 
Q 2550 3084 2163 3084 
Q 1697 3084 1428 2787 
Q 1159 2491 1159 1978 
L 1159 0 
L 581 0 
L 581 4863 
L 1159 4863 
L 1159 2956 
Q 1366 3272 1645 3428 
Q 1925 3584 2291 3584 
Q 2894 3584 3203 3211 
Q 3513 2838 3513 2113 
z
" transform="scale(0.015625)"/>
       <path id="DejaVuSans-69" d="M 603 3500 
L 1178 3500 
L 1178 0 
L 603 0 
L 603 3500 
z
M 603 4863 
L 1178 4863 
L 1178 4134 
L 603 4134 
L 603 4863 
z
" transform="scale(0.015625)"/>
       <path id="DejaVuSans-62" d="M 3116 1747 
Q 3116 2381 2855 2742 
Q 2594 3103 2138 3103 
Q 1681 3103 1420 2742 
Q 1159 2381 1159 1747 
Q 1159 1113 1420 752 
Q 1681 391 2138 391 
Q 2594 391 2855 752 
Q 3116 1113 3116 1747 
z
M 1159 2969 
Q 1341 3281 1617 3432 
Q 1894 3584 2278 3584 
Q 2916 3584 3314 3078 
Q 3713 2572 3713 1747 
Q 3713 922 3314 415 
Q 2916 -91 2278 -91 
Q 1894 -91 1617 61 
Q 1341 213 1159 525 
L 1159 0 
L 581 0 
L 581 4863 
L 1159 4863 
L 1159 2969 
z
" transform="scale(0.015625)"/>
       <path id="DejaVuSans-74" d="M 1172 4494 
L 1172 3500 
L 2356 3500 
L 2356 3053 
L 1172 3053 
L 1172 1153 
Q 1172 725 1289 603 
Q 1406 481 1766 481 
L 2356 481 
L 2356 0 
L 1766 0 
Q 1100 0 847 248 
Q 594 497 594 1153 
L 594 3053 
L 172 3053 
L 172 3500 
L 594 3500 
L 594 4494 
L 1172 4494 
z
" transform="scale(0.015625)"/>
       <path id="DejaVuSans-6f" d="M 1959 3097 
Q 1497 3097 1228 2736 
Q 959 2375 959 1747 
Q 959 1119 1226 758 
Q 1494 397 1959 397 
Q 2419 397 2687 759 
Q 2956 1122 2956 1747 
Q 2956 2369 2687 2733 
Q 2419 3097 1959 3097 
z
M 1959 3584 
Q 2709 3584 3137 3096 
Q 3566 2609 3566 1747 
Q 3566 888 3137 398 
Q 2709 -91 1959 -91 
Q 1206 -91 779 398 
Q 353 888 353 1747 
Q 353 2609 779 3096 
Q 1206 3584 1959 3584 
z
" transform="scale(0.015625)"/>
      </defs>
      <use xlink:href="#DejaVuSans-49"/>
      <use xlink:href="#DejaVuSans-6e" x="29.492188"/>
      <use xlink:href="#DejaVuSans-68" x="92.871094"/>
      <use xlink:href="#DejaVuSans-69" x="156.25"/>
      <use xlink:href="#DejaVuSans-62" x="184.033203"/>
      <use xlink:href="#DejaVuSans-69" x="247.509766"/>
      <use xlink:href="#DejaVuSans-74" x="275.292969"/>
      <use xlink:href="#DejaVuSans-69" x="314.501953"/>
      <use xlink:href="#DejaVuSans-6f" x="342.285156"/>
      <use xlink:href="#DejaVuSans-6e" x="403.466797"/>
     </g>
    </g>
   </g>
   <g id="text_3">
    <g id="patch_14">
     <path d="M 429.690979 169.6777 
L 454.319994 141.601956 
Q 455.902687 139.797771 454.098502 138.215078 
L 448.278128 133.109243 
Q 446.473943 131.52655 444.89125 133.330735 
L 420.262235 161.406479 
Q 418.679542 163.210664 420.483727 164.793357 
L 426.304102 169.899191 
Q 428.108286 171.481884 429.690979 169.6777 
z
" clip-path="url(#p6382a17e52)" style="fill: #ffffff; stroke: #ffffff; stroke-linejoin: miter"/>
    </g>
    <g clip-path="url(#p6382a17e52)">
     <!-- Inhibition -->
     <g transform="translate(426.636081 166.997837) rotate(-48.74164) scale(0.08 -0.08)">
      <use xlink:href="#DejaVuSans-49"/>
      <use xlink:href="#DejaVuSans-6e" x="29.492188"/>
      <use xlink:href="#DejaVuSans-68" x="92.871094"/>
      <use xlink:href="#DejaVuSans-69" x="156.25"/>
      <use xlink:href="#DejaVuSans-62" x="184.033203"/>
      <use xlink:href="#DejaVuSans-69" x="247.509766"/>
      <use xlink:href="#DejaVuSans-74" x="275.292969"/>
      <use xlink:href="#DejaVuSans-69" x="314.501953"/>
      <use xlink:href="#DejaVuSans-6f" x="342.285156"/>
      <use xlink:href="#DejaVuSans-6e" x="403.466797"/>
     </g>
    </g>
   </g>
   <g id="text_4">
    <g id="patch_15">
     <path d="M 245.603949 243.260637 
L 282.239112 236.00112 
Q 284.593336 235.534614 284.12683 233.180389 
L 282.621862 225.585564 
Q 282.155355 223.231339 279.801131 223.697846 
L 243.165968 230.957363 
Q 240.811744 231.423869 241.27825 233.778093 
L 242.783219 241.372919 
Q 243.249725 243.727143 245.603949 243.260637 
z
" clip-path="url(#p6382a17e52)" style="fill: #ffffff; stroke: #ffffff; stroke-linejoin: miter"/>
    </g>
    <g clip-path="url(#p6382a17e52)">
     <!-- Inhibition -->
     <g transform="translate(244.814047 239.274396) rotate(-11.208366) scale(0.08 -0.08)">
      <use xlink:href="#DejaVuSans-49"/>
      <use xlink:href="#DejaVuSans-6e" x="29.492188"/>
      <use xlink:href="#DejaVuSans-68" x="92.871094"/>
      <use xlink:href="#DejaVuSans-69" x="156.25"/>
      <use xlink:href="#DejaVuSans-62" x="184.033203"/>
      <use xlink:href="#DejaVuSans-69" x="247.509766"/>
      <use xlink:href="#DejaVuSans-74" x="275.292969"/>
      <use xlink:href="#DejaVuSans-69" x="314.501953"/>
      <use xlink:href="#DejaVuSans-6f" x="342.285156"/>
      <use xlink:href="#DejaVuSans-6e" x="403.466797"/>
     </g>
    </g>
   </g>
   <g id="text_5">
    <g id="patch_16">
     <path d="M 546.159875 245.235803 
L 583.249105 249.620404 
Q 585.632509 249.902165 585.914269 247.518761 
L 586.823239 239.829803 
Q 587.104999 237.4464 584.721596 237.164639 
L 547.632366 232.780039 
Q 545.248962 232.498278 544.967202 234.881682 
L 544.058232 242.57064 
Q 543.776471 244.954043 546.159875 245.235803 
z
" clip-path="url(#p6382a17e52)" style="fill: #ffffff; stroke: #ffffff; stroke-linejoin: miter"/>
    </g>
    <g clip-path="url(#p6382a17e52)">
     <!-- Inhibition -->
     <g transform="translate(546.636959 241.200155) rotate(-353.25792) scale(0.08 -0.08)">
      <use xlink:href="#DejaVuSans-49"/>
      <use xlink:href="#DejaVuSans-6e" x="29.492188"/>
      <use xlink:href="#DejaVuSans-68" x="92.871094"/>
      <use xlink:href="#DejaVuSans-69" x="156.25"/>
      <use xlink:href="#DejaVuSans-62" x="184.033203"/>
      <use xlink:href="#DejaVuSans-69" x="247.509766"/>
      <use xlink:href="#DejaVuSans-74" x="275.292969"/>
      <use xlink:href="#DejaVuSans-69" x="314.501953"/>
      <use xlink:href="#DejaVuSans-6f" x="342.285156"/>
      <use xlink:href="#DejaVuSans-6e" x="403.466797"/>
     </g>
    </g>
   </g>
   <g id="text_6">
    <g id="patch_17">
     <path d="M 131.28594 259.671035 
L 156.862226 286.886644 
Q 158.505792 288.635555 160.254703 286.991989 
L 165.896764 281.689776 
Q 167.645675 280.04621 166.002109 278.297298 
L 140.425823 251.08169 
Q 138.782257 249.332778 137.033346 250.976345 
L 131.391285 256.278557 
Q 129.642374 257.922124 131.28594 259.671035 
z
" clip-path="url(#p6382a17e52)" style="fill: #ffffff; stroke: #ffffff; stroke-linejoin: miter"/>
    </g>
    <g clip-path="url(#p6382a17e52)">
     <!-- Inhibition -->
     <g transform="translate(134.247248 256.888101) rotate(-313.221391) scale(0.08 -0.08)">
      <use xlink:href="#DejaVuSans-49"/>
      <use xlink:href="#DejaVuSans-6e" x="29.492188"/>
      <use xlink:href="#DejaVuSans-68" x="92.871094"/>
      <use xlink:href="#DejaVuSans-69" x="156.25"/>
      <use xlink:href="#DejaVuSans-62" x="184.033203"/>
      <use xlink:href="#DejaVuSans-69" x="247.509766"/>
      <use xlink:href="#DejaVuSans-74" x="275.292969"/>
      <use xlink:href="#DejaVuSans-69" x="314.501953"/>
      <use xlink:href="#DejaVuSans-6f" x="342.285156"/>
      <use xlink:href="#DejaVuSans-6e" x="403.466797"/>
     </g>
    </g>
   </g>
   <g id="text_7">
    <g id="patch_18">
     <path d="M 166.904299 275.713645 
L 197.511106 287.418956 
Q 199.752765 288.276259 200.610068 286.034601 
L 203.375763 278.802918 
Q 204.233066 276.56126 201.991408 275.703957 
L 171.3846 263.998646 
Q 169.142942 263.141343 168.285639 265.383001 
L 165.519944 272.614684 
Q 164.662641 274.856342 166.904299 275.713645 
z
" clip-path="url(#p6382a17e52)" style="fill: #ffffff; stroke: #ffffff; stroke-linejoin: miter"/>
    </g>
    <g clip-path="url(#p6382a17e52)">
     <!-- Synergy -->
     <g transform="translate(168.355909 271.918004) rotate(-339.071075) scale(0.08 -0.08)">
      <use xlink:href="#DejaVuSans-53"/>
      <use xlink:href="#DejaVuSans-79" x="63.476562"/>
      <use xlink:href="#DejaVuSans-6e" x="122.65625"/>
      <use xlink:href="#DejaVuSans-65" x="186.035156"/>
      <use xlink:href="#DejaVuSans-72" x="247.558594"/>
      <use xlink:href="#DejaVuSans-67" x="286.921875"/>
      <use xlink:href="#DejaVuSans-79" x="350.398438"/>
     </g>
    </g>
   </g>
   <g id="text_8">
    <g id="patch_19">
     <path d="M 233.730178 352.00975 
L 235.415885 319.284387 
Q 235.539347 316.887565 233.142525 316.764103 
L 225.410276 316.365809 
Q 223.013454 316.242347 222.889992 318.639169 
L 221.204285 351.364532 
Q 221.080823 353.761354 223.477645 353.884817 
L 231.209894 354.28311 
Q 233.606716 354.406572 233.730178 352.00975 
z
" clip-path="url(#p6382a17e52)" style="fill: #ffffff; stroke: #ffffff; stroke-linejoin: miter"/>
    </g>
    <g clip-path="url(#p6382a17e52)">
     <!-- Synergy -->
     <g transform="translate(229.671809 351.8007) rotate(-87.05126) scale(0.08 -0.08)">
      <use xlink:href="#DejaVuSans-53"/>
      <use xlink:href="#DejaVuSans-79" x="63.476562"/>
      <use xlink:href="#DejaVuSans-6e" x="122.65625"/>
      <use xlink:href="#DejaVuSans-65" x="186.035156"/>
      <use xlink:href="#DejaVuSans-72" x="247.558594"/>
      <use xlink:href="#DejaVuSans-67" x="286.921875"/>
      <use xlink:href="#DejaVuSans-79" x="350.398438"/>
     </g>
    </g>
   </g>
   <g id="text_9">
    <g id="patch_20">
     <path d="M 345.590383 407.625842 
L 365.293642 381.442401 
Q 366.736719 379.524713 364.819031 378.081636 
L 358.632487 373.42621 
Q 356.714799 371.983134 355.271722 373.900822 
L 335.568463 400.084262 
Q 334.125386 402.001951 336.043075 403.445028 
L 342.229618 408.100454 
Q 344.147306 409.54353 345.590383 407.625842 
z
" clip-path="url(#p6382a17e52)" style="fill: #ffffff; stroke: #ffffff; stroke-linejoin: miter"/>
    </g>
    <g clip-path="url(#p6382a17e52)">
     <!-- Synergy -->
     <g transform="translate(342.343297 405.182382) rotate(-53.038231) scale(0.08 -0.08)">
      <use xlink:href="#DejaVuSans-53"/>
      <use xlink:href="#DejaVuSans-79" x="63.476562"/>
      <use xlink:href="#DejaVuSans-6e" x="122.65625"/>
      <use xlink:href="#DejaVuSans-65" x="186.035156"/>
      <use xlink:href="#DejaVuSans-72" x="247.558594"/>
      <use xlink:href="#DejaVuSans-67" x="286.921875"/>
      <use xlink:href="#DejaVuSans-79" x="350.398438"/>
     </g>
    </g>
   </g>
   <g id="text_10">
    <g id="patch_21">
     <path d="M 339.013458 412.62229 
L 370.807671 420.55444 
Q 373.136295 421.135394 373.71725 418.80677 
L 375.591434 411.294531 
Q 376.172389 408.965906 373.843764 408.384952 
L 342.049551 400.452802 
Q 339.720927 399.871847 339.139972 402.200471 
L 337.265788 409.712711 
Q 336.684833 412.041335 339.013458 412.62229 
z
" clip-path="url(#p6382a17e52)" style="fill: #ffffff; stroke: #ffffff; stroke-linejoin: miter"/>
    </g>
    <g clip-path="url(#p6382a17e52)">
     <!-- Synergy -->
     <g transform="translate(339.997147 408.679395) rotate(-345.991581) scale(0.08 -0.08)">
      <use xlink:href="#DejaVuSans-53"/>
      <use xlink:href="#DejaVuSans-79" x="63.476562"/>
      <use xlink:href="#DejaVuSans-6e" x="122.65625"/>
      <use xlink:href="#DejaVuSans-65" x="186.035156"/>
      <use xlink:href="#DejaVuSans-72" x="247.558594"/>
      <use xlink:href="#DejaVuSans-67" x="286.921875"/>
      <use xlink:href="#DejaVuSans-79" x="350.398438"/>
     </g>
    </g>
   </g>
   <g id="PathCollection_1">
    <defs>
     <path id="mc3f9484ad8" d="M 0 19.364917 
C 5.135636 19.364917 10.061621 17.324507 13.693064 13.693064 
C 17.324507 10.061621 19.364917 5.135636 19.364917 0 
C 19.364917 -5.135636 17.324507 -10.061621 13.693064 -13.693064 
C 10.061621 -17.324507 5.135636 -19.364917 0 -19.364917 
C -5.135636 -19.364917 -10.061621 -17.324507 -13.693064 -13.693064 
C -17.324507 -10.061621 -19.364917 -5.135636 -19.364917 0 
C -19.364917 5.135636 -17.324507 10.061621 -13.693064 13.693064 
C -10.061621 17.324507 -5.135636 19.364917 0 19.364917 
z
" style="stroke: #d3d3d3"/>
    </defs>
    <g clip-path="url(#p6382a17e52)">
     <use xlink:href="#mc3f9484ad8" x="556.117433" y="225.271436" style="fill: #d3d3d3; stroke: #d3d3d3"/>
     <use xlink:href="#mc3f9484ad8" x="599.578512" y="245.235908" style="fill: #d3d3d3; stroke: #d3d3d3"/>
     <use xlink:href="#mc3f9484ad8" x="386.983593" y="208.852071" style="fill: #d3d3d3; stroke: #d3d3d3"/>
     <use xlink:href="#mc3f9484ad8" x="531.302958" y="237.164534" style="fill: #d3d3d3; stroke: #d3d3d3"/>
     <use xlink:href="#mc3f9484ad8" x="487.598637" y="94.156364" style="fill: #d3d3d3; stroke: #d3d3d3"/>
     <use xlink:href="#mc3f9484ad8" x="138.421488" y="258.106412" style="fill: #d3d3d3; stroke: #d3d3d3"/>
     <use xlink:href="#mc3f9484ad8" x="230.474219" y="293.31119" style="fill: #d3d3d3; stroke: #d3d3d3"/>
     <use xlink:href="#mc3f9484ad8" x="226.145952" y="377.337729" style="fill: #d3d3d3; stroke: #d3d3d3"/>
     <use xlink:href="#mc3f9484ad8" x="361.989787" y="375.403059" style="fill: #d3d3d3; stroke: #d3d3d3"/>
     <use xlink:href="#mc3f9484ad8" x="338.872318" y="406.123605" style="fill: #d3d3d3; stroke: #d3d3d3"/>
     <use xlink:href="#mc3f9484ad8" x="373.984904" y="414.883636" style="fill: #d3d3d3; stroke: #d3d3d3"/>
     <use xlink:href="#mc3f9484ad8" x="158.866562" y="279.861922" style="fill: #d3d3d3; stroke: #d3d3d3"/>
    </g>
   </g>
   <g id="text_11">
    <g clip-path="url(#p6382a17e52)">
     <!-- Vitamin C -->
     <g transform="translate(534.310715 227.754874) scale(0.09 -0.09)">
      <defs>
       <path id="DejaVuSans-56" d="M 1831 0 
L 50 4666 
L 709 4666 
L 2188 738 
L 3669 4666 
L 4325 4666 
L 2547 0 
L 1831 0 
z
" transform="scale(0.015625)"/>
       <path id="DejaVuSans-61" d="M 2194 1759 
Q 1497 1759 1228 1600 
Q 959 1441 959 1056 
Q 959 750 1161 570 
Q 1363 391 1709 391 
Q 2188 391 2477 730 
Q 2766 1069 2766 1631 
L 2766 1759 
L 2194 1759 
z
M 3341 1997 
L 3341 0 
L 2766 0 
L 2766 531 
Q 2569 213 2275 61 
Q 1981 -91 1556 -91 
Q 1019 -91 701 211 
Q 384 513 384 1019 
Q 384 1609 779 1909 
Q 1175 2209 1959 2209 
L 2766 2209 
L 2766 2266 
Q 2766 2663 2505 2880 
Q 2244 3097 1772 3097 
Q 1472 3097 1187 3025 
Q 903 2953 641 2809 
L 641 3341 
Q 956 3463 1253 3523 
Q 1550 3584 1831 3584 
Q 2591 3584 2966 3190 
Q 3341 2797 3341 1997 
z
" transform="scale(0.015625)"/>
       <path id="DejaVuSans-6d" d="M 3328 2828 
Q 3544 3216 3844 3400 
Q 4144 3584 4550 3584 
Q 5097 3584 5394 3201 
Q 5691 2819 5691 2113 
L 5691 0 
L 5113 0 
L 5113 2094 
Q 5113 2597 4934 2840 
Q 4756 3084 4391 3084 
Q 3944 3084 3684 2787 
Q 3425 2491 3425 1978 
L 3425 0 
L 2847 0 
L 2847 2094 
Q 2847 2600 2669 2842 
Q 2491 3084 2119 3084 
Q 1678 3084 1418 2786 
Q 1159 2488 1159 1978 
L 1159 0 
L 581 0 
L 581 3500 
L 1159 3500 
L 1159 2956 
Q 1356 3278 1631 3431 
Q 1906 3584 2284 3584 
Q 2666 3584 2933 3390 
Q 3200 3197 3328 2828 
z
" transform="scale(0.015625)"/>
       <path id="DejaVuSans-20" transform="scale(0.015625)"/>
       <path id="DejaVuSans-43" d="M 4122 4306 
L 4122 3641 
Q 3803 3938 3442 4084 
Q 3081 4231 2675 4231 
Q 1875 4231 1450 3742 
Q 1025 3253 1025 2328 
Q 1025 1406 1450 917 
Q 1875 428 2675 428 
Q 3081 428 3442 575 
Q 3803 722 4122 1019 
L 4122 359 
Q 3791 134 3420 21 
Q 3050 -91 2638 -91 
Q 1578 -91 968 557 
Q 359 1206 359 2328 
Q 359 3453 968 4101 
Q 1578 4750 2638 4750 
Q 3056 4750 3426 4639 
Q 3797 4528 4122 4306 
z
" transform="scale(0.015625)"/>
      </defs>
      <use xlink:href="#DejaVuSans-56"/>
      <use xlink:href="#DejaVuSans-69" x="66.158203"/>
      <use xlink:href="#DejaVuSans-74" x="93.941406"/>
      <use xlink:href="#DejaVuSans-61" x="133.150391"/>
      <use xlink:href="#DejaVuSans-6d" x="194.429688"/>
      <use xlink:href="#DejaVuSans-69" x="291.841797"/>
      <use xlink:href="#DejaVuSans-6e" x="319.625"/>
      <use xlink:href="#DejaVuSans-20" x="383.003906"/>
      <use xlink:href="#DejaVuSans-43" x="414.791016"/>
     </g>
    </g>
   </g>
   <g id="text_12">
    <g clip-path="url(#p6382a17e52)">
     <!-- Iron -->
     <g transform="translate(590.897028 247.719346) scale(0.09 -0.09)">
      <use xlink:href="#DejaVuSans-49"/>
      <use xlink:href="#DejaVuSans-72" x="29.492188"/>
      <use xlink:href="#DejaVuSans-6f" x="68.355469"/>
      <use xlink:href="#DejaVuSans-6e" x="129.537109"/>
     </g>
    </g>
   </g>
   <g id="text_13">
    <g clip-path="url(#p6382a17e52)">
     <!-- Phytates -->
     <g transform="translate(367.355858 211.335508) scale(0.09 -0.09)">
      <defs>
       <path id="DejaVuSans-50" d="M 1259 4147 
L 1259 2394 
L 2053 2394 
Q 2494 2394 2734 2622 
Q 2975 2850 2975 3272 
Q 2975 3691 2734 3919 
Q 2494 4147 2053 4147 
L 1259 4147 
z
M 628 4666 
L 2053 4666 
Q 2838 4666 3239 4311 
Q 3641 3956 3641 3272 
Q 3641 2581 3239 2228 
Q 2838 1875 2053 1875 
L 1259 1875 
L 1259 0 
L 628 0 
L 628 4666 
z
" transform="scale(0.015625)"/>
       <path id="DejaVuSans-73" d="M 2834 3397 
L 2834 2853 
Q 2591 2978 2328 3040 
Q 2066 3103 1784 3103 
Q 1356 3103 1142 2972 
Q 928 2841 928 2578 
Q 928 2378 1081 2264 
Q 1234 2150 1697 2047 
L 1894 2003 
Q 2506 1872 2764 1633 
Q 3022 1394 3022 966 
Q 3022 478 2636 193 
Q 2250 -91 1575 -91 
Q 1294 -91 989 -36 
Q 684 19 347 128 
L 347 722 
Q 666 556 975 473 
Q 1284 391 1588 391 
Q 1994 391 2212 530 
Q 2431 669 2431 922 
Q 2431 1156 2273 1281 
Q 2116 1406 1581 1522 
L 1381 1569 
Q 847 1681 609 1914 
Q 372 2147 372 2553 
Q 372 3047 722 3315 
Q 1072 3584 1716 3584 
Q 2034 3584 2315 3537 
Q 2597 3491 2834 3397 
z
" transform="scale(0.015625)"/>
      </defs>
      <use xlink:href="#DejaVuSans-50"/>
      <use xlink:href="#DejaVuSans-68" x="60.302734"/>
      <use xlink:href="#DejaVuSans-79" x="123.681641"/>
      <use xlink:href="#DejaVuSans-74" x="182.861328"/>
      <use xlink:href="#DejaVuSans-61" x="222.070312"/>
      <use xlink:href="#DejaVuSans-74" x="283.349609"/>
      <use xlink:href="#DejaVuSans-65" x="322.558594"/>
      <use xlink:href="#DejaVuSans-73" x="384.082031"/>
     </g>
    </g>
   </g>
   <g id="text_14">
    <g clip-path="url(#p6382a17e52)">
     <!-- Polyphenols -->
     <g transform="translate(504.408427 239.647972) scale(0.09 -0.09)">
      <defs>
       <path id="DejaVuSans-6c" d="M 603 4863 
L 1178 4863 
L 1178 0 
L 603 0 
L 603 4863 
z
" transform="scale(0.015625)"/>
       <path id="DejaVuSans-70" d="M 1159 525 
L 1159 -1331 
L 581 -1331 
L 581 3500 
L 1159 3500 
L 1159 2969 
Q 1341 3281 1617 3432 
Q 1894 3584 2278 3584 
Q 2916 3584 3314 3078 
Q 3713 2572 3713 1747 
Q 3713 922 3314 415 
Q 2916 -91 2278 -91 
Q 1894 -91 1617 61 
Q 1341 213 1159 525 
z
M 3116 1747 
Q 3116 2381 2855 2742 
Q 2594 3103 2138 3103 
Q 1681 3103 1420 2742 
Q 1159 2381 1159 1747 
Q 1159 1113 1420 752 
Q 1681 391 2138 391 
Q 2594 391 2855 752 
Q 3116 1113 3116 1747 
z
" transform="scale(0.015625)"/>
      </defs>
      <use xlink:href="#DejaVuSans-50"/>
      <use xlink:href="#DejaVuSans-6f" x="56.677734"/>
      <use xlink:href="#DejaVuSans-6c" x="117.859375"/>
      <use xlink:href="#DejaVuSans-79" x="145.642578"/>
      <use xlink:href="#DejaVuSans-70" x="204.822266"/>
      <use xlink:href="#DejaVuSans-68" x="268.298828"/>
      <use xlink:href="#DejaVuSans-65" x="331.677734"/>
      <use xlink:href="#DejaVuSans-6e" x="393.201172"/>
      <use xlink:href="#DejaVuSans-6f" x="456.580078"/>
      <use xlink:href="#DejaVuSans-6c" x="517.761719"/>
      <use xlink:href="#DejaVuSans-73" x="545.544922"/>
     </g>
    </g>
   </g>
   <g id="text_15">
    <g clip-path="url(#p6382a17e52)">
     <!-- Zinc -->
     <g transform="translate(477.939809 96.639801) scale(0.09 -0.09)">
      <defs>
       <path id="DejaVuSans-5a" d="M 359 4666 
L 4025 4666 
L 4025 4184 
L 1075 531 
L 4097 531 
L 4097 0 
L 288 0 
L 288 481 
L 3238 4134 
L 359 4134 
L 359 4666 
z
" transform="scale(0.015625)"/>
       <path id="DejaVuSans-63" d="M 3122 3366 
L 3122 2828 
Q 2878 2963 2633 3030 
Q 2388 3097 2138 3097 
Q 1578 3097 1268 2742 
Q 959 2388 959 1747 
Q 959 1106 1268 751 
Q 1578 397 2138 397 
Q 2388 397 2633 464 
Q 2878 531 3122 666 
L 3122 134 
Q 2881 22 2623 -34 
Q 2366 -91 2075 -91 
Q 1284 -91 818 406 
Q 353 903 353 1747 
Q 353 2603 823 3093 
Q 1294 3584 2113 3584 
Q 2378 3584 2631 3529 
Q 2884 3475 3122 3366 
z
" transform="scale(0.015625)"/>
      </defs>
      <use xlink:href="#DejaVuSans-5a"/>
      <use xlink:href="#DejaVuSans-69" x="68.505859"/>
      <use xlink:href="#DejaVuSans-6e" x="96.289062"/>
      <use xlink:href="#DejaVuSans-63" x="159.667969"/>
     </g>
    </g>
   </g>
   <g id="text_16">
    <g clip-path="url(#p6382a17e52)">
     <!-- Calcium -->
     <g transform="translate(120.3118 260.589849) scale(0.09 -0.09)">
      <defs>
       <path id="DejaVuSans-75" d="M 544 1381 
L 544 3500 
L 1119 3500 
L 1119 1403 
Q 1119 906 1312 657 
Q 1506 409 1894 409 
Q 2359 409 2629 706 
Q 2900 1003 2900 1516 
L 2900 3500 
L 3475 3500 
L 3475 0 
L 2900 0 
L 2900 538 
Q 2691 219 2414 64 
Q 2138 -91 1772 -91 
Q 1169 -91 856 284 
Q 544 659 544 1381 
z
M 1991 3584 
L 1991 3584 
z
" transform="scale(0.015625)"/>
      </defs>
      <use xlink:href="#DejaVuSans-43"/>
      <use xlink:href="#DejaVuSans-61" x="69.824219"/>
      <use xlink:href="#DejaVuSans-6c" x="131.103516"/>
      <use xlink:href="#DejaVuSans-63" x="158.886719"/>
      <use xlink:href="#DejaVuSans-69" x="213.867188"/>
      <use xlink:href="#DejaVuSans-75" x="241.650391"/>
      <use xlink:href="#DejaVuSans-6d" x="305.029297"/>
     </g>
    </g>
   </g>
   <g id="text_17">
    <g clip-path="url(#p6382a17e52)">
     <!-- Prebiotics -->
     <g transform="translate(208.628828 295.794628) scale(0.09 -0.09)">
      <use xlink:href="#DejaVuSans-50"/>
      <use xlink:href="#DejaVuSans-72" x="58.552734"/>
      <use xlink:href="#DejaVuSans-65" x="97.416016"/>
      <use xlink:href="#DejaVuSans-62" x="158.939453"/>
      <use xlink:href="#DejaVuSans-69" x="222.416016"/>
      <use xlink:href="#DejaVuSans-6f" x="250.199219"/>
      <use xlink:href="#DejaVuSans-74" x="311.380859"/>
      <use xlink:href="#DejaVuSans-69" x="350.589844"/>
      <use xlink:href="#DejaVuSans-63" x="378.373047"/>
      <use xlink:href="#DejaVuSans-73" x="433.353516"/>
     </g>
    </g>
   </g>
   <g id="text_18">
    <g clip-path="url(#p6382a17e52)">
     <!-- Magnesium -->
     <g transform="translate(200.19853 379.821167) scale(0.09 -0.09)">
      <defs>
       <path id="DejaVuSans-4d" d="M 628 4666 
L 1569 4666 
L 2759 1491 
L 3956 4666 
L 4897 4666 
L 4897 0 
L 4281 0 
L 4281 4097 
L 3078 897 
L 2444 897 
L 1241 4097 
L 1241 0 
L 628 0 
L 628 4666 
z
" transform="scale(0.015625)"/>
      </defs>
      <use xlink:href="#DejaVuSans-4d"/>
      <use xlink:href="#DejaVuSans-61" x="86.279297"/>
      <use xlink:href="#DejaVuSans-67" x="147.558594"/>
      <use xlink:href="#DejaVuSans-6e" x="211.035156"/>
      <use xlink:href="#DejaVuSans-65" x="274.414062"/>
      <use xlink:href="#DejaVuSans-73" x="335.9375"/>
      <use xlink:href="#DejaVuSans-69" x="388.037109"/>
      <use xlink:href="#DejaVuSans-75" x="415.820312"/>
      <use xlink:href="#DejaVuSans-6d" x="479.199219"/>
     </g>
    </g>
   </g>
   <g id="text_19">
    <g clip-path="url(#p6382a17e52)">
     <!-- Carotenoids -->
     <g transform="translate(334.998225 377.886496) scale(0.09 -0.09)">
      <defs>
       <path id="DejaVuSans-64" d="M 2906 2969 
L 2906 4863 
L 3481 4863 
L 3481 0 
L 2906 0 
L 2906 525 
Q 2725 213 2448 61 
Q 2172 -91 1784 -91 
Q 1150 -91 751 415 
Q 353 922 353 1747 
Q 353 2572 751 3078 
Q 1150 3584 1784 3584 
Q 2172 3584 2448 3432 
Q 2725 3281 2906 2969 
z
M 947 1747 
Q 947 1113 1208 752 
Q 1469 391 1925 391 
Q 2381 391 2643 752 
Q 2906 1113 2906 1747 
Q 2906 2381 2643 2742 
Q 2381 3103 1925 3103 
Q 1469 3103 1208 2742 
Q 947 2381 947 1747 
z
" transform="scale(0.015625)"/>
      </defs>
      <use xlink:href="#DejaVuSans-43"/>
      <use xlink:href="#DejaVuSans-61" x="69.824219"/>
      <use xlink:href="#DejaVuSans-72" x="131.103516"/>
      <use xlink:href="#DejaVuSans-6f" x="169.966797"/>
      <use xlink:href="#DejaVuSans-74" x="231.148438"/>
      <use xlink:href="#DejaVuSans-65" x="270.357422"/>
      <use xlink:href="#DejaVuSans-6e" x="331.880859"/>
      <use xlink:href="#DejaVuSans-6f" x="395.259766"/>
      <use xlink:href="#DejaVuSans-69" x="456.441406"/>
      <use xlink:href="#DejaVuSans-64" x="484.224609"/>
      <use xlink:href="#DejaVuSans-73" x="547.701172"/>
     </g>
    </g>
   </g>
   <g id="text_20">
    <g clip-path="url(#p6382a17e52)">
     <!-- Vitamin A -->
     <g transform="translate(317.129583 408.607043) scale(0.09 -0.09)">
      <defs>
       <path id="DejaVuSans-41" d="M 2188 4044 
L 1331 1722 
L 3047 1722 
L 2188 4044 
z
M 1831 4666 
L 2547 4666 
L 4325 0 
L 3669 0 
L 3244 1197 
L 1141 1197 
L 716 0 
L 50 0 
L 1831 4666 
z
" transform="scale(0.015625)"/>
      </defs>
      <use xlink:href="#DejaVuSans-56"/>
      <use xlink:href="#DejaVuSans-69" x="66.158203"/>
      <use xlink:href="#DejaVuSans-74" x="93.941406"/>
      <use xlink:href="#DejaVuSans-61" x="133.150391"/>
      <use xlink:href="#DejaVuSans-6d" x="194.429688"/>
      <use xlink:href="#DejaVuSans-69" x="291.841797"/>
      <use xlink:href="#DejaVuSans-6e" x="319.625"/>
      <use xlink:href="#DejaVuSans-20" x="383.003906"/>
      <use xlink:href="#DejaVuSans-41" x="414.791016"/>
     </g>
    </g>
   </g>
   <g id="text_21">
    <g clip-path="url(#p6382a17e52)">
     <!-- Fat (meal presence) -->
     <g transform="translate(329.171232 417.367074) scale(0.09 -0.09)">
      <defs>
       <path id="DejaVuSans-46" d="M 628 4666 
L 3309 4666 
L 3309 4134 
L 1259 4134 
L 1259 2759 
L 3109 2759 
L 3109 2228 
L 1259 2228 
L 1259 0 
L 628 0 
L 628 4666 
z
" transform="scale(0.015625)"/>
       <path id="DejaVuSans-28" d="M 1984 4856 
Q 1566 4138 1362 3434 
Q 1159 2731 1159 2009 
Q 1159 1288 1364 580 
Q 1569 -128 1984 -844 
L 1484 -844 
Q 1016 -109 783 600 
Q 550 1309 550 2009 
Q 550 2706 781 3412 
Q 1013 4119 1484 4856 
L 1984 4856 
z
" transform="scale(0.015625)"/>
       <path id="DejaVuSans-29" d="M 513 4856 
L 1013 4856 
Q 1481 4119 1714 3412 
Q 1947 2706 1947 2009 
Q 1947 1309 1714 600 
Q 1481 -109 1013 -844 
L 513 -844 
Q 928 -128 1133 580 
Q 1338 1288 1338 2009 
Q 1338 2731 1133 3434 
Q 928 4138 513 4856 
z
" transform="scale(0.015625)"/>
      </defs>
      <use xlink:href="#DejaVuSans-46"/>
      <use xlink:href="#DejaVuSans-61" x="48.394531"/>
      <use xlink:href="#DejaVuSans-74" x="109.673828"/>
      <use xlink:href="#DejaVuSans-20" x="148.882812"/>
      <use xlink:href="#DejaVuSans-28" x="180.669922"/>
      <use xlink:href="#DejaVuSans-6d" x="219.683594"/>
      <use xlink:href="#DejaVuSans-65" x="317.095703"/>
      <use xlink:href="#DejaVuSans-61" x="378.619141"/>
      <use xlink:href="#DejaVuSans-6c" x="439.898438"/>
      <use xlink:href="#DejaVuSans-20" x="467.681641"/>
      <use xlink:href="#DejaVuSans-70" x="499.46875"/>
      <use xlink:href="#DejaVuSans-72" x="562.945312"/>
      <use xlink:href="#DejaVuSans-65" x="601.808594"/>
      <use xlink:href="#DejaVuSans-73" x="663.332031"/>
      <use xlink:href="#DejaVuSans-65" x="715.431641"/>
      <use xlink:href="#DejaVuSans-6e" x="776.955078"/>
      <use xlink:href="#DejaVuSans-63" x="840.333984"/>
      <use xlink:href="#DejaVuSans-65" x="895.314453"/>
      <use xlink:href="#DejaVuSans-29" x="956.837891"/>
     </g>
    </g>
   </g>
   <g id="text_22">
    <g clip-path="url(#p6382a17e52)">
     <!-- Vitamin D -->
     <g transform="translate(136.737109 282.345359) scale(0.09 -0.09)">
      <defs>
       <path id="DejaVuSans-44" d="M 1259 4147 
L 1259 519 
L 2022 519 
Q 2988 519 3436 956 
Q 3884 1394 3884 2338 
Q 3884 3275 3436 3711 
Q 2988 4147 2022 4147 
L 1259 4147 
z
M 628 4666 
L 1925 4666 
Q 3281 4666 3915 4102 
Q 4550 3538 4550 2338 
Q 4550 1131 3912 565 
Q 3275 0 1925 0 
L 628 0 
L 628 4666 
z
" transform="scale(0.015625)"/>
      </defs>
      <use xlink:href="#DejaVuSans-56"/>
      <use xlink:href="#DejaVuSans-69" x="66.158203"/>
      <use xlink:href="#DejaVuSans-74" x="93.941406"/>
      <use xlink:href="#DejaVuSans-61" x="133.150391"/>
      <use xlink:href="#DejaVuSans-6d" x="194.429688"/>
      <use xlink:href="#DejaVuSans-69" x="291.841797"/>
      <use xlink:href="#DejaVuSans-6e" x="319.625"/>
      <use xlink:href="#DejaVuSans-20" x="383.003906"/>
      <use xlink:href="#DejaVuSans-44" x="414.791016"/>
     </g>
    </g>
   </g>
   <g id="text_23">
    <!-- Nutrient Interaction Map (Synergies and Inhibitors) -->
    <g style="fill: #333333" transform="translate(165.01875 54.48) scale(0.16 -0.16)">
     <defs>
      <path id="DejaVuSans-4e" d="M 628 4666 
L 1478 4666 
L 3547 763 
L 3547 4666 
L 4159 4666 
L 4159 0 
L 3309 0 
L 1241 3903 
L 1241 0 
L 628 0 
L 628 4666 
z
" transform="scale(0.015625)"/>
     </defs>
     <use xlink:href="#DejaVuSans-4e"/>
     <use xlink:href="#DejaVuSans-75" x="74.804688"/>
     <use xlink:href="#DejaVuSans-74" x="138.183594"/>
     <use xlink:href="#DejaVuSans-72" x="177.392578"/>
     <use xlink:href="#DejaVuSans-69" x="218.505859"/>
     <use xlink:href="#DejaVuSans-65" x="246.289062"/>
     <use xlink:href="#DejaVuSans-6e" x="307.8125"/>
     <use xlink:href="#DejaVuSans-74" x="371.191406"/>
     <use xlink:href="#DejaVuSans-20" x="410.400391"/>
     <use xlink:href="#DejaVuSans-49" x="442.1875"/>
     <use xlink:href="#DejaVuSans-6e" x="471.679688"/>
     <use xlink:href="#DejaVuSans-74" x="535.058594"/>
     <use xlink:href="#DejaVuSans-65" x="574.267578"/>
     <use xlink:href="#DejaVuSans-72" x="635.791016"/>
     <use xlink:href="#DejaVuSans-61" x="676.904297"/>
     <use xlink:href="#DejaVuSans-63" x="738.183594"/>
     <use xlink:href="#DejaVuSans-74" x="793.164062"/>
     <use xlink:href="#DejaVuSans-69" x="832.373047"/>
     <use xlink:href="#DejaVuSans-6f" x="860.15625"/>
     <use xlink:href="#DejaVuSans-6e" x="921.337891"/>
     <use xlink:href="#DejaVuSans-20" x="984.716797"/>
     <use xlink:href="#DejaVuSans-4d" x="1016.503906"/>
     <use xlink:href="#DejaVuSans-61" x="1102.783203"/>
     <use xlink:href="#DejaVuSans-70" x="1164.0625"/>
     <use xlink:href="#DejaVuSans-20" x="1227.539062"/>
     <use xlink:href="#DejaVuSans-28" x="1259.326172"/>
     <use xlink:href="#DejaVuSans-53" x="1298.339844"/>
     <use xlink:href="#DejaVuSans-79" x="1361.816406"/>
     <use xlink:href="#DejaVuSans-6e" x="1420.996094"/>
     <use xlink:href="#DejaVuSans-65" x="1484.375"/>
     <use xlink:href="#DejaVuSans-72" x="1545.898438"/>
     <use xlink:href="#DejaVuSans-67" x="1585.261719"/>
     <use xlink:href="#DejaVuSans-69" x="1648.738281"/>
     <use xlink:href="#DejaVuSans-65" x="1676.521484"/>
     <use xlink:href="#DejaVuSans-73" x="1738.044922"/>
     <use xlink:href="#DejaVuSans-20" x="1790.144531"/>
     <use xlink:href="#DejaVuSans-61" x="1821.931641"/>
     <use xlink:href="#DejaVuSans-6e" x="1883.210938"/>
     <use xlink:href="#DejaVuSans-64" x="1946.589844"/>
     <use xlink:href="#DejaVuSans-20" x="2010.066406"/>
     <use xlink:href="#DejaVuSans-49" x="2041.853516"/>
     <use xlink:href="#DejaVuSans-6e" x="2071.345703"/>
     <use xlink:href="#DejaVuSans-68" x="2134.724609"/>
     <use xlink:href="#DejaVuSans-69" x="2198.103516"/>
     <use xlink:href="#DejaVuSans-62" x="2225.886719"/>
     <use xlink:href="#DejaVuSans-69" x="2289.363281"/>
     <use xlink:href="#DejaVuSans-74" x="2317.146484"/>
     <use xlink:href="#DejaVuSans-6f" x="2356.355469"/>
     <use xlink:href="#DejaVuSans-72" x="2417.537109"/>
     <use xlink:href="#DejaVuSans-73" x="2458.650391"/>
     <use xlink:href="#DejaVuSans-29" x="2510.75"/>
    </g>
   </g>
  </g>
 </g>
 <defs>
  <clipPath id="p6382a17e52">
   <rect x="90" y="60.48" width="558" height="388.08"/>
  </clipPath>
 </defs>
</svg>
